<svg xmlns="http://www.w3.org/2000/svg" xmlns:xlink="http://www.w3.org/1999/xlink" width="992" height="482.78"><rect width="992" height="482.78" rx="5" ry="5" class="a"/><svg y="0%" x="0%"><circle cx="20" cy="20" r="6" fill="#ff5f58"/><circle cx="40" cy="20" r="6" fill="#ffbd2e"/><circle cx="60" cy="20" r="6" fill="#18c132"/></svg><svg height="390.78" viewBox="0 0 92 39.078" width="920" x="31" xmlns="http://www.w3.org/2000/svg" xmlns:xlink="http://www.w3.org/1999/xlink" y="66"><style>@keyframes i{0%{transform:translateX(0)}1.4%{transform:translateX(-92px)}2.9%{transform:translateX(-184px)}7.9%{transform:translateX(-276px)}14.4%{transform:translateX(-368px)}20.9%{transform:translateX(-460px)}25.9%{transform:translateX(-552px)}32.4%{transform:translateX(-644px)}37.4%{transform:translateX(-736px)}47.5%{transform:translateX(-828px)}54%{transform:translateX(-920px)}60.4%{transform:translateX(-1012px)}66.9%{transform:translateX(-1104px)}73.4%{transform:translateX(-1196px)}79.9%{transform:translateX(-1288px)}84.9%{transform:translateX(-1380px)}to{transform:translateX(-1472px)}}.a{fill:#fff}.f{fill:#000;white-space:pre}</style><g font-family="Monaco,Consolas,Menlo,'Bitstream Vera Sans Mono','Powerline Symbols',monospace" font-size="1.67"><defs><symbol id="1"><text y="1.67" class="f">$</text><text x="2.004" y="1.67" class="f">npm</text><text x="6.012" y="1.67" class="f">run</text><text x="10.02" y="1.67" class="f">demo:openclaw</text></symbol><symbol id="2"><text y="1.67" class="f">&gt;</text><text x="2.004" y="1.67" class="f">something-else@0.1.0</text><text x="23.046" y="1.67" class="f">demo:openclaw</text></symbol><symbol id="3"><text y="1.67" class="f">&gt;</text><text x="2.004" y="1.67" class="f">tsx</text><text x="6.012" y="1.67" class="f">src/examples/openclaw-adapter.ts</text></symbol><symbol id="4"><text x="2.004" y="1.67" class="f">·</text><text x="4.008" y="1.67" class="f">tool</text><text x="9.018" y="1.67" class="f">list_files</text><text x="20.04" y="1.67" class="f">→</text><text x="22.044" y="1.67" class="f">[list_files]</text><text x="35.07" y="1.67" class="f">ok</text><text x="38.076" y="1.67" class="f">(3</text><text x="41.082" y="1.67" class="f">matches)</text></symbol><symbol id="5"><text y="1.67" class="f">&gt;&gt;&gt;</text><text x="4.008" y="1.67" class="f">incoming:</text><text x="14.028" y="1.67" class="f">/steer</text><text x="21.042" y="1.67" class="f">also</text><text x="26.052" y="1.67" class="f">list</text><text x="31.062" y="1.67" class="f">any</text><text x="35.07" y="1.67" class="f">TODO</text><text x="40.08" y="1.67" class="f">comments</text></symbol><symbol id="6"><text x="2.004" y="1.67" class="f">«queued»</text><text x="11.022" y="1.67" class="f">Queued</text><text x="18.036" y="1.67" class="f">instruction;</text><text x="31.062" y="1.67" class="f">will</text><text x="36.072" y="1.67" class="f">apply</text><text x="42.084" y="1.67" class="f">at</text><text x="45.09" y="1.67" class="f">next</text><text x="50.1" y="1.67" class="f">round</text><text x="56.112" y="1.67" class="f">boundary.</text></symbol><symbol id="7"><text x="2.004" y="1.67" class="f">«injected»</text><text x="13.026" y="1.67" class="f">Injecting</text><text x="23.046" y="1.67" class="f">1</text><text x="25.05" y="1.67" class="f">steering</text><text x="34.068" y="1.67" class="f">instruction(s)</text><text x="49.098" y="1.67" class="f">into</text><text x="54.108" y="1.67" class="f">the</text><text x="58.116" y="1.67" class="f">plan.</text></symbol><symbol id="8"><text x="2.004" y="1.67" class="f">·</text><text x="4.008" y="1.67" class="f">model:</text><text x="11.022" y="1.67" class="f">Done</text><text x="16.032" y="1.67" class="f">—</text><text x="18.036" y="1.67" class="f">exports</text><text x="26.052" y="1.67" class="f">audited</text><text x="34.068" y="1.67" class="f">AND</text><text x="38.076" y="1.67" class="f">TODOs</text><text x="44.088" y="1.67" class="f">listed</text><text x="51.102" y="1.67" class="f">(per</text><text x="56.112" y="1.67" class="f">your</text><text x="61.122" y="1.67" class="f">mid-run</text><text x="69.138" y="1.67" class="f">note).</text></symbol><symbol id="9"><text y="1.67" class="f">Final</text><text x="6.012" y="1.67" class="f">context:</text><text x="15.03" y="1.67" class="f">9</text><text x="17.034" y="1.67" class="f">messages.</text></symbol><symbol id="a"><path fill="transparent" d="M0 0h92v18H0z"/></symbol><symbol id="b"><path fill="#929292" d="M0 0h1.102v2.171H0z"/></symbol></defs><path class="a" d="M0 0h92v39.078H0z"/><g style="animation-duration:6.95s;animation-iteration-count:infinite;animation-name:i;animation-timing-function:steps(1,end)"><svg width="1564"><svg><use xlink:href="#a"/><use xlink:href="#b" x="-.004"/></svg><svg x="92"><use xlink:href="#a"/><use xlink:href="#b" x="-.004" y="2.146"/><use xlink:href="#1"/></svg><svg x="184"><use xlink:href="#a"/><use xlink:href="#b" x="-.004" y="4.317"/><use xlink:href="#1"/></svg><svg x="276"><use xlink:href="#a"/><use xlink:href="#b" x="-.004" y="6.488"/><use xlink:href="#1"/><use xlink:href="#2" y="4.342"/></svg><svg x="368"><use xlink:href="#a"/><use xlink:href="#b" x="-.004" y="8.659"/><use xlink:href="#1"/><use xlink:href="#2" y="4.342"/><use xlink:href="#3" y="6.513"/></svg><svg x="460"><use xlink:href="#a"/><use xlink:href="#b" x="-.004" y="10.83"/><use xlink:href="#1"/><use xlink:href="#2" y="4.342"/><use xlink:href="#3" y="6.513"/></svg><svg x="552"><use xlink:href="#a"/><use xlink:href="#b" x="-.004" y="13.001"/><use xlink:href="#1"/><use xlink:href="#2" y="4.342"/><use xlink:href="#3" y="6.513"/><use xlink:href="#4" y="10.855"/></svg><svg x="644"><use xlink:href="#a"/><use xlink:href="#b" x="-.004" y="15.172"/><use xlink:href="#1"/><use xlink:href="#2" y="4.342"/><use xlink:href="#3" y="6.513"/><use xlink:href="#4" y="10.855"/></svg><svg x="736"><use xlink:href="#a"/><use xlink:href="#b" x="-.004" y="17.343"/><use xlink:href="#1"/><use xlink:href="#2" y="4.342"/><use xlink:href="#3" y="6.513"/><use xlink:href="#4" y="10.855"/><use xlink:href="#5" y="15.197"/></svg><svg x="828"><use xlink:href="#a"/><use xlink:href="#b" x="-.004" y="19.514"/><use xlink:href="#1"/><use xlink:href="#2" y="4.342"/><use xlink:href="#3" y="6.513"/><use xlink:href="#4" y="10.855"/><use xlink:href="#5" y="15.197"/><use xlink:href="#6" y="17.368"/></svg><svg x="920"><use xlink:href="#a"/><use xlink:href="#b" x="-.004" y="21.685"/><use xlink:href="#1"/><use xlink:href="#2" y="4.342"/><use xlink:href="#3" y="6.513"/><use xlink:href="#4" y="10.855"/><use xlink:href="#5" y="15.197"/><use xlink:href="#6" y="17.368"/><use xlink:href="#4" y="19.539"/></svg><svg x="1012"><use xlink:href="#a"/><use xlink:href="#b" x="-.004" y="23.856"/><use xlink:href="#1"/><use xlink:href="#2" y="4.342"/><use xlink:href="#3" y="6.513"/><use xlink:href="#4" y="10.855"/><use xlink:href="#5" y="15.197"/><use xlink:href="#6" y="17.368"/><use xlink:href="#4" y="19.539"/><use xlink:href="#7" y="21.71"/></svg><svg x="1104"><use xlink:href="#a"/><use xlink:href="#b" x="-.004" y="26.027"/><use xlink:href="#1"/><use xlink:href="#2" y="4.342"/><use xlink:href="#3" y="6.513"/><use xlink:href="#4" y="10.855"/><use xlink:href="#5" y="15.197"/><use xlink:href="#6" y="17.368"/><use xlink:href="#4" y="19.539"/><use xlink:href="#7" y="21.71"/><use xlink:href="#4" y="23.881"/></svg><svg x="1196"><use xlink:href="#a"/><use xlink:href="#b" x="-.004" y="28.198"/><use xlink:href="#1"/><use xlink:href="#2" y="4.342"/><use xlink:href="#3" y="6.513"/><use xlink:href="#4" y="10.855"/><use xlink:href="#5" y="15.197"/><use xlink:href="#6" y="17.368"/><use xlink:href="#4" y="19.539"/><use xlink:href="#7" y="21.71"/><use xlink:href="#4" y="23.881"/><use xlink:href="#8" y="26.052"/></svg><svg x="1288"><use xlink:href="#a"/><use xlink:href="#b" x="-.004" y="30.369"/><use xlink:href="#1"/><use xlink:href="#2" y="4.342"/><use xlink:href="#3" y="6.513"/><use xlink:href="#4" y="10.855"/><use xlink:href="#5" y="15.197"/><use xlink:href="#6" y="17.368"/><use xlink:href="#4" y="19.539"/><use xlink:href="#7" y="21.71"/><use xlink:href="#4" y="23.881"/><use xlink:href="#8" y="26.052"/></svg><svg x="1380"><use xlink:href="#a"/><use xlink:href="#b" x="-.004" y="32.54"/><use xlink:href="#1"/><use xlink:href="#2" y="4.342"/><use xlink:href="#3" y="6.513"/><use xlink:href="#4" y="10.855"/><use xlink:href="#5" y="15.197"/><use xlink:href="#6" y="17.368"/><use xlink:href="#4" y="19.539"/><use xlink:href="#7" y="21.71"/><use xlink:href="#4" y="23.881"/><use xlink:href="#8" y="26.052"/><use xlink:href="#9" y="30.394"/></svg><svg x="1472"><use xlink:href="#a"/><use xlink:href="#b" x="-.004" y="32.54"/><use xlink:href="#1"/><use xlink:href="#2" y="4.342"/><use xlink:href="#3" y="6.513"/><use xlink:href="#4" y="10.855"/><use xlink:href="#5" y="15.197"/><use xlink:href="#6" y="17.368"/><use xlink:href="#4" y="19.539"/><use xlink:href="#7" y="21.71"/><use xlink:href="#4" y="23.881"/><use xlink:href="#8" y="26.052"/><use xlink:href="#9" y="30.394"/></svg></svg></g></g></svg></svg>